<svg width="111" height="52" viewBox="0 0 475 219" fill="none" xmlns="http://www.w3.org/2000/svg">
<path d="M19.576 99C16.3333 99 13.3467 98.1893 10.616 96.568C7.97067 94.9467 5.83733 92.8133 4.216 90.168C2.59467 87.4373 1.784 84.4507 1.784 81.208V74.168H18.68V80.44C18.68 80.8667 18.808 81.2507 19.064 81.592C19.4053 81.848 19.7893 81.976 20.216 81.976H75.384C75.8107 81.976 76.152 81.848 76.408 81.592C76.7493 81.2507 76.92 80.8667 76.92 80.44V62.904C76.92 62.4773 76.7493 62.136 76.408 61.88C76.152 61.624 75.8107 61.496 75.384 61.496H19.576C16.3333 61.496 13.3467 60.6853 10.616 59.064C7.97067 57.4427 5.83733 55.3093 4.216 52.664C2.59467 49.9333 1.784 46.904 1.784 43.576V24.632C1.784 21.3893 2.59467 18.4453 4.216 15.8C5.83733 13.0693 7.97067 10.8933 10.616 9.272C13.3467 7.65066 16.3333 6.84 19.576 6.84H76.152C79.3947 6.84 82.3387 7.65066 84.984 9.272C87.7147 10.8933 89.8907 13.0693 91.512 15.8C93.1333 18.4453 93.944 21.3893 93.944 24.632V31.672H76.92V25.4C76.92 24.9733 76.7493 24.632 76.408 24.376C76.152 24.0347 75.8107 23.864 75.384 23.864H20.216C19.7893 23.864 19.4053 24.0347 19.064 24.376C18.808 24.632 18.68 24.9733 18.68 25.4V42.936C18.68 43.3627 18.808 43.704 19.064 43.96C19.4053 44.216 19.7893 44.344 20.216 44.344H76.152C79.3947 44.344 82.3387 45.1547 84.984 46.776C87.7147 48.3973 89.8907 50.5733 91.512 53.304C93.1333 55.9493 93.944 58.936 93.944 62.264V81.208C93.944 84.4507 93.1333 87.4373 91.512 90.168C89.8907 92.8133 87.7147 94.9467 84.984 96.568C82.3387 98.1893 79.3947 99 76.152 99H19.576ZM124.942 99C121.699 99 118.755 98.1893 116.11 96.568C113.465 94.9467 111.331 92.8133 109.71 90.168C108.089 87.5227 107.278 84.5787 107.278 81.336V42.424C107.278 39.1813 108.089 36.2373 109.71 33.592C111.331 30.9467 113.465 28.8133 116.11 27.192C118.755 25.5707 121.699 24.76 124.942 24.76H165.006C168.249 24.76 171.193 25.5707 173.838 27.192C176.569 28.8133 178.702 30.9467 180.238 33.592C181.859 36.2373 182.67 39.1813 182.67 42.424V81.336C182.67 84.5787 181.859 87.5227 180.238 90.168C178.702 92.8133 176.611 94.9467 173.966 96.568C171.321 98.1893 168.334 99 165.006 99H124.942ZM125.582 82.232H164.366C164.793 82.232 165.134 82.104 165.39 81.848C165.731 81.5067 165.902 81.1227 165.902 80.696V43.064C165.902 42.6373 165.731 42.296 165.39 42.04C165.134 41.6987 164.793 41.528 164.366 41.528H125.582C125.155 41.528 124.771 41.6987 124.43 42.04C124.174 42.296 124.046 42.6373 124.046 43.064V80.696C124.046 81.1227 124.174 81.5067 124.43 81.848C124.771 82.104 125.155 82.232 125.582 82.232ZM196.287 99V0.439995H213.055V24.76H254.015C257.258 24.76 260.202 25.5707 262.847 27.192C265.492 28.8133 267.626 30.9467 269.247 33.592C270.868 36.2373 271.679 39.1813 271.679 42.424V99H254.911V43.064C254.911 42.6373 254.74 42.296 254.399 42.04C254.143 41.6987 253.802 41.528 253.375 41.528H214.591C214.164 41.528 213.78 41.6987 213.439 42.04C213.183 42.296 213.055 42.6373 213.055 43.064V99H196.287ZM299.32 99C296.077 99 293.091 98.1893 290.36 96.568C287.715 94.9467 285.581 92.8133 283.96 90.168C282.424 87.5227 281.656 84.5787 281.656 81.336V53.432H340.28V43.064C340.28 42.6373 340.109 42.296 339.768 42.04C339.512 41.6987 339.171 41.528 338.744 41.528H281.656V24.76H339.384C342.627 24.76 345.571 25.5707 348.216 27.192C350.947 28.8133 353.08 30.9467 354.616 33.592C356.237 36.2373 357.048 39.1813 357.048 42.424V99H299.32ZM299.96 82.232H340.28V68.536H298.424V80.696C298.424 81.1227 298.552 81.5067 298.808 81.848C299.149 82.104 299.533 82.232 299.96 82.232ZM370.531 99V24.76H387.299V99H370.531ZM370.531 17.336V0.439995H387.299V17.336H370.531ZM399.162 99V0.439995H415.93V24.76H456.89C460.133 24.76 463.077 25.5707 465.722 27.192C468.453 28.8133 470.586 30.9467 472.122 33.592C473.743 36.2373 474.554 39.1813 474.554 42.424V81.336C474.554 84.5787 473.743 87.5227 472.122 90.168C470.586 92.8133 468.453 94.9467 465.722 96.568C463.077 98.1893 460.133 99 456.89 99H399.162ZM417.466 82.232H456.25C456.677 82.232 457.018 82.104 457.274 81.848C457.615 81.5067 457.786 81.1227 457.786 80.696V43.064C457.786 42.6373 457.615 42.296 457.274 42.04C457.018 41.6987 456.677 41.528 456.25 41.528H417.466C417.039 41.528 416.655 41.6987 416.314 42.04C416.058 42.296 415.93 42.6373 415.93 43.064V80.696C415.93 81.1227 416.058 81.5067 416.314 81.848C416.655 82.104 417.039 82.232 417.466 82.232Z" fill="url(#paint0_linear_13_78)"/>
<path d="M0.568 219V163.224C0.568 160.792 1.176 158.584 2.392 156.6C3.608 154.552 5.208 152.92 7.192 151.704C9.24 150.488 11.48 149.88 13.912 149.88H56.248C58.68 149.88 60.92 150.488 62.968 151.704C65.016 152.92 66.648 154.552 67.864 156.6C69.08 158.584 69.688 160.792 69.688 163.224V219H56.92V195.768H13.24V219H0.568ZM13.24 183.096H56.92V163.8C56.92 163.48 56.792 163.224 56.536 163.032C56.28 162.776 55.992 162.648 55.672 162.648H14.392C14.072 162.648 13.784 162.776 13.528 163.032C13.336 163.224 13.24 163.48 13.24 163.8V183.096ZM80.434 219V145.08H93.01V163.32H123.73C126.162 163.32 128.37 163.928 130.354 165.144C132.338 166.36 133.938 167.96 135.154 169.944C136.37 171.928 136.978 174.136 136.978 176.568V219H124.402V177.048C124.402 176.728 124.274 176.472 124.018 176.28C123.826 176.024 123.57 175.896 123.25 175.896H94.162C93.842 175.896 93.554 176.024 93.298 176.28C93.106 176.472 93.01 176.728 93.01 177.048V219H80.434ZM144.559 219V163.32H213.583C216.079 163.32 218.319 163.928 220.303 165.144C222.287 166.36 223.855 167.96 225.007 169.944C226.223 171.928 226.831 174.136 226.831 176.568V219H214.351V177.048C214.351 176.728 214.223 176.472 213.967 176.28C213.711 176.024 213.423 175.896 213.103 175.896H193.231C192.911 175.896 192.623 176.024 192.367 176.28C192.175 176.472 192.079 176.728 192.079 177.048V219H179.407V177.048C179.407 176.728 179.279 176.472 179.023 176.28C178.831 176.024 178.575 175.896 178.255 175.896H158.287C157.967 175.896 157.679 176.024 157.423 176.28C157.231 176.472 157.135 176.728 157.135 177.048V219H144.559ZM249.396 219C246.964 219 244.724 218.392 242.676 217.176C240.692 215.96 239.092 214.36 237.876 212.376C236.724 210.392 236.148 208.184 236.148 205.752V184.824H280.116V177.048C280.116 176.728 279.988 176.472 279.732 176.28C279.54 176.024 279.284 175.896 278.964 175.896H236.148V163.32H279.444C281.876 163.32 284.084 163.928 286.068 165.144C288.116 166.36 289.716 167.96 290.868 169.944C292.084 171.928 292.692 174.136 292.692 176.568V219H249.396ZM249.876 206.424H280.116V196.152H248.724V205.272C248.724 205.592 248.82 205.88 249.012 206.136C249.268 206.328 249.556 206.424 249.876 206.424ZM313.269 219C310.773 219 308.533 218.392 306.549 217.176C304.565 215.96 302.965 214.36 301.749 212.376C300.597 210.392 300.021 208.184 300.021 205.752V176.568C300.021 174.136 300.597 171.928 301.749 169.944C302.965 167.96 304.565 166.36 306.549 165.144C308.533 163.928 310.773 163.32 313.269 163.32H344.085V145.08H356.661V219H313.269ZM313.845 206.424H342.933C343.253 206.424 343.509 206.328 343.701 206.136C343.957 205.88 344.085 205.592 344.085 205.272V177.048C344.085 176.728 343.957 176.472 343.701 176.28C343.509 176.024 343.253 175.896 342.933 175.896H313.845C313.525 175.896 313.237 176.024 312.981 176.28C312.789 176.472 312.693 176.728 312.693 177.048V205.272C312.693 205.592 312.789 205.88 312.981 206.136C313.237 206.328 313.525 206.424 313.845 206.424Z" fill="white"/>
<defs>
<linearGradient id="paint0_linear_13_78" x1="-59.5" y1="-31" x2="536" y2="105" gradientUnits="userSpaceOnUse">
<stop offset="0.03125" stop-color="#FF56F6"/>
<stop offset="0.333333" stop-color="#B936EE"/>
<stop offset="0.791667" stop-color="#3BACE2"/>
<stop offset="1" stop-color="#406AFF"/>
</linearGradient>
</defs>
</svg>
